<?xml version="1.0" standalone="no"?>
<!DOCTYPE svg PUBLIC "-//W3C//DTD SVG 20010904//EN"
 "http://www.w3.org/TR/2001/REC-SVG-20010904/DTD/svg10.dtd">
<svg version="1.0" xmlns="http://www.w3.org/2000/svg"
 width="1600.000000pt" height="1066.000000pt" viewBox="0 0 1600.000000 1066.000000"
 preserveAspectRatio="xMidYMid meet">

<g transform="translate(0.000000,1066.000000) scale(0.100000,-0.100000)"
fill="#000000" stroke="none">
<path d="M15660 10649 c0 -5 5 -7 10 -4 6 3 10 8 10 11 0 2 -4 4 -10 4 -5 0
-10 -5 -10 -11z"/>
<path d="M15895 10639 c-16 -3 -25 -7 -20 -8 23 -4 87 -10 84 -8 -2 2 -11 7
-19 13 -8 6 -28 7 -45 3z"/>
<path d="M8835 7308 c-11 -6 -21 -12 -23 -13 -1 -1 2 -14 7 -28 20 -52 132
-71 189 -31 19 13 21 18 11 31 -37 44 -139 67 -184 41z"/>
<path d="M9435 7144 c-22 -15 -42 -29 -44 -30 -2 -2 8 -19 23 -38 27 -37 75
-54 114 -42 18 6 52 69 52 96 0 5 -18 14 -41 20 -22 6 -46 13 -52 16 -7 2 -30
-8 -52 -22z"/>
<path d="M8233 7113 c-81 -17 -17 -103 77 -103 35 0 100 25 100 38 0 5 -17 21
-37 35 -38 26 -99 39 -140 30z"/>
<path d="M9973 6882 c-62 -31 -113 -59 -113 -62 0 -3 53 -39 119 -81 l118 -77
107 60 c58 32 106 63 106 68 0 22 -60 72 -129 110 -41 22 -79 40 -85 39 -6 0
-62 -26 -123 -57z"/>
<path d="M7628 6855 c-47 -17 -122 -69 -142 -97 -14 -20 -13 -23 32 -51 81
-51 174 -107 179 -107 6 0 197 110 206 120 13 11 -187 150 -215 149 -13 0 -40
-7 -60 -14z"/>
<path d="M8935 6846 c-66 -21 -129 -57 -360 -203 -121 -76 -246 -154 -277
-172 -32 -18 -58 -36 -58 -40 0 -5 34 -32 75 -60 41 -29 73 -57 70 -62 -3 -5
-51 -36 -105 -70 -55 -33 -103 -65 -106 -70 -3 -5 5 -18 18 -29 35 -28 264
-164 340 -201 65 -32 70 -33 115 -21 27 7 89 35 138 63 l90 50 56 -17 c53 -15
60 -15 110 1 150 49 553 283 666 388 l43 40 -142 79 c-78 44 -203 118 -277
166 -253 160 -315 185 -396 158z"/>
<path d="M7648 6109 c-44 -25 0 -82 72 -94 28 -5 51 -1 84 14 25 11 46 22 46
24 0 3 -21 19 -47 36 -49 33 -119 42 -155 20z"/>
<path d="M4725 5819 c-362 -19 -559 -146 -625 -405 -33 -129 -21 -244 40 -364
40 -80 135 -179 208 -218 101 -54 158 -63 482 -71 323 -9 374 -17 425 -68 51
-51 57 -96 25 -189 -25 -71 -56 -105 -124 -136 -51 -23 -52 -23 -481 -23 -236
0 -449 -1 -472 -2 l-43 -3 -75 -150 c-41 -82 -75 -155 -75 -161 0 -7 162 -9
568 -6 618 4 627 5 750 64 76 37 194 154 227 224 73 162 73 316 0 474 -45 98
-108 164 -202 213 -124 63 -173 71 -513 82 -146 5 -281 13 -301 19 -52 16
-102 52 -118 85 -32 67 -9 198 44 251 59 59 48 58 898 62 l777 4 -24 -63 c-13
-35 -81 -211 -151 -393 -70 -181 -144 -375 -165 -430 -31 -83 -200 -520 -217
-562 -4 -10 39 -13 195 -13 l201 0 29 78 c16 42 55 152 88 244 l59 168 291 0
292 0 10 -27 c6 -16 34 -89 62 -163 28 -74 66 -172 83 -217 l32 -83 208 0
c114 0 207 2 207 4 0 4 -50 128 -227 561 -74 182 -188 463 -254 625 -123 303
-153 377 -211 515 l-34 80 -875 1 c-480 0 -937 -2 -1014 -7z m1725 -389 c0 -5
50 -143 110 -305 61 -162 110 -297 110 -300 0 -3 -101 -5 -225 -5 -124 0 -225
4 -225 8 0 5 21 64 46 133 106 286 152 416 159 447 6 29 25 46 25 22z"/>
<path d="M7107 5823 c-4 -3 -7 -203 -7 -443 l0 -437 96 -214 c53 -118 134
-299 180 -403 46 -104 89 -196 94 -205 6 -10 10 297 10 847 l0 862 -183 0
c-101 0 -187 -3 -190 -7z"/>
<path d="M7590 5339 l0 -487 116 -263 c64 -145 147 -331 183 -414 l67 -150
225 -3 225 -2 199 392 c110 216 267 527 350 690 l150 298 648 0 647 0 0 212 0
211 -582 -6 c-321 -4 -665 -7 -765 -7 l-181 0 -11 -27 c-5 -16 -90 -183 -188
-373 -98 -190 -245 -477 -328 -637 -82 -161 -154 -291 -160 -290 -17 6 -159
324 -430 967 -75 179 -143 336 -151 350 -11 21 -13 -47 -14 -461z"/>
<path d="M10552 5813 l-32 -4 2 -887 3 -887 193 -3 192 -2 0 465 c0 307 3 464
10 460 14 -8 117 -155 305 -435 284 -421 305 -449 358 -477 35 -18 134 -21
320 -8 l97 7 0 889 0 889 -195 0 -195 0 -2 -572 -3 -573 -85 119 c-94 133
-369 536 -567 833 l-128 192 -120 -1 c-66 -1 -135 -3 -153 -5z"/>
<path d="M8000 5551 c0 -5 11 -33 24 -62 13 -30 61 -137 105 -239 45 -102 88
-198 96 -215 12 -27 14 0 14 248 l1 277 -120 0 c-66 0 -120 -4 -120 -9z"/>
<path d="M9224 5133 l-61 -4 -76 -157 c-42 -86 -161 -331 -266 -543 -105 -212
-191 -389 -191 -392 0 -4 398 -7 885 -7 l885 0 -2 208 -3 207 -485 6 c-267 3
-486 6 -488 7 -1 1 -1 62 0 135 l3 132 380 5 380 5 -1 85 c-1 47 -2 138 -3
203 l-1 117 -447 -2 c-247 -1 -475 -3 -509 -5z"/>
<path d="M4050 3756 c0 -24 3 -25 63 -28 l62 -3 3 -107 3 -108 29 0 30 0 0
110 0 109 63 3 c54 3 62 5 62 23 0 19 -8 20 -157 23 l-158 3 0 -25z"/>
<path d="M4447 3773 c-4 -3 -7 -64 -7 -135 l0 -128 146 0 c145 0 145 0 142 23
-3 21 -8 22 -110 25 l-108 3 0 29 c0 30 0 30 60 30 57 0 60 1 60 25 0 24 -3
25 -60 25 l-60 0 0 30 0 30 104 0 c86 0 105 3 110 16 3 9 4 20 0 25 -6 10
-267 13 -277 2z"/>
<path d="M4856 3764 c-20 -20 -23 -223 -4 -242 8 -8 54 -12 140 -12 118 0 128
1 138 20 6 12 10 33 8 48 -2 23 -8 27 -33 27 -23 0 -30 -4 -30 -20 0 -18 -8
-20 -88 -23 l-88 -3 3 83 3 83 85 0 c81 0 85 -1 88 -22 6 -41 62 -25 62 17 0
51 -24 60 -153 60 -92 0 -119 -3 -131 -16z"/>
<path d="M5270 3645 l0 -135 30 0 c30 0 30 1 30 55 l0 55 100 0 100 0 0 -55 0
-55 35 0 35 0 0 136 0 135 -32 -3 c-32 -3 -33 -4 -36 -56 l-3 -53 -97 3 -97 3
-3 53 c-3 50 -4 52 -33 52 l-29 0 0 -135z"/>
<path d="M5740 3645 l0 -135 25 0 c28 0 29 3 25 108 -1 38 2 62 9 62 5 0 55
-38 110 -85 68 -58 109 -85 126 -85 l25 0 0 135 0 135 -30 0 -29 0 -3 -90 -3
-90 -108 90 c-60 49 -117 90 -128 90 -18 0 -19 -9 -19 -135z"/>
<path d="M6214 3766 c-17 -13 -19 -27 -19 -126 0 -88 3 -113 15 -120 23 -15
293 -13 308 2 19 19 16 222 -4 242 -22 22 -270 23 -300 2z m256 -121 l0 -85
-105 0 -105 0 0 85 0 85 105 0 105 0 0 -85z"/>
<path d="M6670 3645 l0 -135 130 0 130 0 0 25 0 25 -100 0 -100 0 0 110 0 110
-30 0 -30 0 0 -135z"/>
<path d="M7029 3759 c-19 -19 -20 -30 -17 -125 2 -80 7 -107 18 -114 23 -15
293 -13 308 2 19 19 16 222 -4 242 -12 13 -41 16 -150 16 -123 0 -136 -2 -155
-21z m261 -114 l0 -85 -105 0 -105 0 0 85 0 85 105 0 105 0 0 -85z"/>
<path d="M7502 3764 c-20 -14 -22 -23 -22 -115 0 -145 -7 -139 158 -139 75 0
143 4 150 8 10 7 18 81 13 130 -1 8 -24 12 -81 12 -73 0 -80 -2 -80 -20 0 -17
7 -20 50 -20 49 0 50 -1 50 -30 l0 -31 -97 3 -98 3 0 80 0 80 98 3 c82 2 97 0
97 -13 0 -16 17 -19 44 -9 22 9 20 51 -3 64 -11 5 -73 10 -138 10 -91 0 -124
-4 -141 -16z"/>
<path d="M7918 3723 c27 -32 59 -67 71 -77 17 -15 21 -31 21 -78 0 -58 0 -58
30 -58 30 0 30 0 30 58 0 57 0 57 71 135 l71 77 -33 0 c-27 0 -44 -10 -86 -52
l-52 -51 -46 51 c-42 46 -51 52 -87 52 l-40 0 50 -57z"/>
<path d="M8518 3769 c-14 -8 -18 -23 -18 -67 0 -32 5 -63 12 -70 8 -8 48 -12
115 -12 l103 0 0 -30 0 -30 -95 0 c-78 0 -95 3 -95 15 0 18 -1 18 -34 6 -21
-9 -23 -14 -17 -38 l7 -28 133 -3 c90 -2 138 1 147 9 18 15 19 109 2 132 -11
13 -34 17 -118 19 l-105 3 -3 28 -3 27 90 0 c74 0 91 -3 91 -15 0 -18 14 -19
41 -5 24 13 24 25 -1 50 -18 18 -33 20 -127 20 -60 0 -116 -5 -125 -11z"/>
<path d="M8936 3764 c-20 -20 -23 -223 -4 -242 13 -13 271 -18 302 -6 13 5 16
26 16 125 0 107 -2 119 -19 129 -11 5 -78 10 -150 10 -104 0 -133 -3 -145 -16z
m254 -119 l0 -85 -105 0 -105 0 0 85 0 85 105 0 105 0 0 -85z"/>
<path d="M9390 3645 l0 -135 136 0 c135 0 135 0 132 23 -3 21 -8 22 -105 25
l-103 3 0 109 0 110 -30 0 -30 0 0 -135z"/>
<path d="M9740 3665 c0 -64 5 -125 10 -136 10 -17 22 -19 143 -19 90 0 137 4
145 12 8 8 12 53 12 135 l0 123 -30 0 -30 0 0 -110 0 -110 -90 0 -89 0 -3 108
-3 107 -32 3 -33 3 0 -116z"/>
<path d="M10130 3755 c0 -24 2 -25 65 -25 l65 0 0 -110 0 -110 30 0 30 0 0
110 0 110 66 0 c62 0 65 1 62 23 -3 22 -6 22 -160 25 l-158 3 0 -26z"/>
<path d="M10524 3767 c-2 -7 -3 -67 -2 -133 l3 -119 33 -3 32 -3 0 135 0 136
-30 0 c-17 0 -33 -6 -36 -13z"/>
<path d="M10736 3758 c-19 -26 -23 -197 -6 -229 10 -17 23 -19 158 -19 102 0
152 4 160 12 19 19 16 222 -4 242 -12 13 -41 16 -154 16 -132 0 -140 -1 -154
-22z m262 -115 l3 -83 -106 0 -105 0 0 85 0 86 103 -3 102 -3 3 -82z"/>
<path d="M11190 3645 l0 -135 30 0 30 0 0 85 c0 47 3 85 8 85 4 0 53 -38 109
-85 70 -59 109 -85 128 -85 l26 0 -3 133 -3 132 -27 3 -27 3 -3 -91 -3 -92
-110 91 c-67 56 -118 91 -132 91 -23 0 -23 -1 -23 -135z"/>
<path d="M11676 3764 c-20 -19 -22 -117 -3 -132 7 -6 60 -13 118 -14 104 -3
104 -3 104 -28 0 -25 -2 -25 -89 -28 -70 -2 -91 0 -100 12 -16 23 -56 10 -56
-18 0 -41 17 -46 149 -46 70 0 132 4 139 9 18 11 19 115 2 136 -10 12 -36 15
-115 15 -89 0 -103 2 -107 18 -10 37 1 42 88 42 71 0 84 -3 84 -16 0 -12 6
-15 23 -10 12 3 25 6 30 6 13 0 7 38 -9 54 -12 13 -39 16 -129 16 -90 0 -117
-3 -129 -16z"/>
<path d="M4075 1168 c-226 -254 -520 -586 -654 -737 -135 -152 -276 -311 -314
-354 -38 -42 -63 -77 -55 -77 7 0 88 84 178 187 91 103 307 347 480 543 280
314 704 796 768 872 13 16 20 28 15 28 -4 0 -193 -208 -418 -462z"/>
<path d="M8254 1563 c3 -38 11 -151 16 -253 6 -102 17 -277 25 -390 8 -113 19
-281 25 -375 6 -93 12 -197 15 -230 2 -33 7 -117 11 -187 3 -71 10 -128 15
-128 5 0 6 26 4 57 -3 32 -14 204 -25 383 -11 179 -27 422 -35 540 -8 118 -17
258 -19 310 -15 279 -20 340 -28 340 -6 0 -8 -27 -4 -67z"/>
<path d="M2499 1593 l-24 -28 30 25 c17 14 32 26 34 28 2 1 0 2 -6 2 -5 0 -20
-12 -34 -27z"/>
<path d="M3494 1598 l-19 -21 28 18 c28 18 33 25 19 25 -5 0 -17 -10 -28 -22z"/>
<path d="M4009 1593 l-24 -28 28 24 c25 23 32 31 24 31 -2 0 -14 -12 -28 -27z"/>
<path d="M7787 1600 c-3 -14 -15 -196 -27 -405 -11 -209 -23 -405 -25 -435 -2
-30 -7 -127 -10 -215 -3 -88 -10 -230 -16 -315 -12 -201 -12 -239 1 -220 5 8
10 53 10 100 0 47 7 193 15 325 33 550 66 1167 62 1178 -3 7 -7 1 -10 -13z"/>
<path d="M8725 1608 c3 -7 21 -101 41 -208 19 -107 51 -278 70 -380 19 -102
48 -258 64 -347 16 -89 42 -230 58 -315 17 -84 38 -199 48 -255 10 -57 22
-103 27 -103 5 0 6 7 3 16 -4 9 -20 94 -37 188 -16 94 -36 200 -44 236 -8 36
-21 106 -30 155 -17 98 -55 305 -115 625 -21 113 -46 249 -55 303 -9 53 -21
97 -26 97 -4 0 -6 -6 -4 -12z"/>
<path d="M9203 1565 c11 -31 21 -54 23 -52 6 5 -29 107 -37 107 -4 0 2 -25 14
-55z"/>
<path d="M10140 1614 c0 -6 7 -19 16 -30 14 -18 14 -18 3 6 -14 31 -19 36 -19
24z"/>
<path d="M11060 1613 c0 -5 21 -32 48 -59 26 -28 35 -36 21 -20 -14 17 -35 44
-47 60 -12 16 -22 24 -22 19z"/>
<path d="M13485 1588 c16 -15 34 -28 39 -28 5 0 -4 10 -20 22 -44 33 -53 36
-19 6z"/>
<path d="M14327 1413 c169 -113 349 -234 398 -268 101 -69 125 -84 110 -67
-11 12 -34 28 -376 257 -123 83 -268 180 -322 218 -54 37 -103 67 -109 67 -5
0 129 -93 299 -207z"/>
<path d="M14355 1612 c11 -2 22 -8 25 -12 6 -10 60 -1 60 10 0 5 -24 8 -52 8
-29 -1 -44 -3 -33 -6z"/>
<path d="M14550 1615 c0 -2 46 -31 103 -64 56 -34 131 -80 167 -103 36 -22 84
-52 107 -67 23 -14 91 -56 150 -94 59 -37 97 -58 83 -46 -14 12 -24 26 -22 31
1 5 -2 7 -7 4 -10 -7 -66 26 -286 169 -27 18 -63 40 -78 49 -15 9 -25 22 -21
27 4 6 14 2 26 -10 20 -22 43 -19 34 5 -3 7 -1 16 4 19 6 4 10 -5 10 -18 0
-14 7 -30 15 -37 18 -15 20 1 3 18 -19 19 -2 25 24 9 37 -24 75 -29 82 -12 3
10 -3 17 -19 21 -14 3 -25 10 -25 15 0 5 -5 8 -11 6 -6 -1 -14 4 -16 11 -3 8
1 10 14 6 25 -9 -45 38 -80 54 -39 17 -87 16 -87 -3 0 -14 34 -39 54 -40 5 0
10 -10 11 -23 2 -20 0 -21 -15 -7 -20 18 -31 19 -27 3 4 -21 -14 -15 -85 27
-73 42 -83 54 -23 30 20 -9 40 -14 43 -11 3 3 0 6 -6 6 -7 0 -12 5 -12 10 0 7
8 6 23 -1 19 -11 20 -10 9 3 -9 11 -31 16 -77 16 -36 0 -65 -2 -65 -3z"/>
<path d="M14948 1613 c18 -2 45 -2 60 0 15 2 0 4 -33 4 -33 0 -45 -2 -27 -4z"/>
<path d="M15172 1614 c3 -3 37 -25 75 -49 37 -24 76 -51 86 -59 9 -9 17 -14
17 -12 0 3 28 -13 63 -34 178 -112 208 -130 202 -120 -4 6 -30 24 -58 41 -29
17 -92 57 -142 90 -49 32 -97 62 -105 66 -29 13 -59 40 -52 48 4 5 1 5 -6 1
-7 -4 -25 2 -41 13 -26 19 -53 29 -39 15z"/>
<path d="M7295 1580 c-4 -17 -5 -34 -2 -36 2 -3 7 10 11 27 8 42 0 50 -9 9z"/>
<path d="M13015 1603 c19 -19 241 -200 323 -263 69 -53 80 -66 65 -72 -16 -7
-16 -7 2 -5 27 2 101 -53 84 -64 -16 -9 -32 -1 -24 12 4 5 4 9 1 9 -3 0 -10
-9 -16 -20 -9 -16 -8 -19 7 -14 17 5 17 5 1 -9 -16 -13 -15 -14 11 -13 24 1
27 4 18 15 -10 12 -9 13 6 8 11 -4 16 -3 12 3 -11 18 7 10 40 -18 18 -15 56
-45 84 -67 116 -89 279 -217 320 -253 24 -20 68 -55 97 -77 66 -51 446 -355
459 -368 7 -7 6 -8 -2 -3 -6 3 -14 2 -18 -3 -3 -6 3 -8 14 -6 23 4 188 -125
184 -143 -2 -7 4 -9 14 -5 12 5 14 3 8 -7 -5 -8 -4 -11 2 -7 6 4 30 -10 54
-31 70 -61 260 -204 264 -200 3 2 -125 107 -283 233 -158 126 -386 308 -506
405 -121 96 -274 218 -340 270 -67 52 -146 115 -177 140 -59 48 -97 78 -459
366 -206 164 -274 216 -245 187z"/>
<path d="M4939 1583 c-13 -16 -12 -17 4 -4 16 13 21 21 13 21 -2 0 -10 -8 -17
-17z"/>
<path d="M9671 1595 c0 -5 6 -21 14 -35 8 -14 14 -20 14 -15 0 6 -6 21 -14 35
-8 14 -14 21 -14 15z"/>
<path d="M11575 1570 c10 -11 20 -20 23 -20 3 0 -3 9 -13 20 -10 11 -20 20
-23 20 -3 0 3 -9 13 -20z"/>
<path d="M14400 1576 c0 -3 17 -10 38 -16 20 -7 44 -19 53 -26 9 -8 19 -11 23
-7 4 4 10 3 14 -3 4 -6 17 -8 30 -5 21 5 21 8 9 25 -11 15 -16 16 -22 6 -6 -9
-4 -11 5 -5 9 5 11 4 6 -3 -10 -17 -20 -15 -46 8 -12 11 -26 17 -31 15 -4 -3
-10 -1 -14 5 -6 9 -65 15 -65 6z"/>
<path d="M5365 1528 c-16 -24 -22 -38 -14 -31 15 12 53 73 46 73 -2 0 -17 -19
-32 -42z"/>
<path d="M2395 1514 l-40 -36 43 32 c36 27 49 40 40 40 -2 0 -21 -16 -43 -36z"/>
<path d="M6312 1525 c-17 -37 -14 -45 4 -12 9 16 14 31 11 33 -2 2 -9 -7 -15
-21z"/>
<path d="M12090 1525 c13 -14 26 -25 28 -25 3 0 -5 11 -18 25 -13 14 -26 25
-28 25 -3 0 5 -11 18 -25z"/>
<path d="M13747 1529 c7 -7 15 -10 18 -7 3 3 -2 9 -12 12 -14 6 -15 5 -6 -5z"/>
<path d="M3365 1482 c-28 -26 -198 -180 -380 -342 -432 -387 -637 -573 -705
-639 -113 -111 406 350 896 795 186 169 253 234 243 234 -2 0 -27 -22 -54 -48z"/>
<path d="M3924 1508 l-19 -23 23 19 c12 11 22 21 22 23 0 8 -8 2 -26 -19z"/>
<path d="M13600 1505 c19 -14 36 -25 39 -25 10 0 -53 49 -63 50 -6 0 5 -11 24
-25z"/>
<path d="M15840 1527 c0 -3 12 -12 26 -22 15 -9 23 -12 20 -6 -7 11 -46 35
-46 28z"/>
<path d="M7281 1510 c-1 -8 -22 -132 -46 -275 -25 -143 -54 -318 -65 -388 -12
-71 -31 -188 -45 -260 -13 -73 -38 -217 -54 -322 -17 -104 -34 -207 -37 -228
-4 -22 -3 -37 3 -37 11 0 10 -2 83 445 28 171 66 404 85 520 75 456 87 535 82
547 -4 9 -6 8 -6 -2z"/>
<path d="M10221 1465 c12 -22 26 -44 32 -50 15 -16 -20 48 -38 70 -9 11 -7 2
6 -20z"/>
<path d="M9230 1484 c0 -9 64 -211 235 -739 46 -143 119 -369 162 -503 43
-133 79 -238 81 -232 2 6 -12 57 -31 113 -39 112 -36 104 -272 842 -92 286
-169 522 -171 524 -2 2 -4 0 -4 -5z"/>
<path d="M12130 1486 c0 -2 8 -10 18 -17 15 -13 16 -12 3 4 -13 16 -21 21 -21
13z"/>
<path d="M3450 1049 c-239 -238 -395 -394 -345 -348 177 166 799 779 790 779
-6 0 -206 -194 -445 -431z"/>
<path d="M5320 1460 c-6 -11 -8 -20 -6 -20 3 0 10 9 16 20 6 11 8 20 6 20 -3
0 -10 -9 -16 -20z"/>
<path d="M9724 1470 c5 -17 63 -154 101 -240 14 -30 61 -140 106 -245 151
-357 235 -552 371 -868 28 -64 53 -115 56 -113 4 5 -18 56 -193 461 -48 110
-104 241 -125 290 -20 50 -59 140 -85 200 -101 232 -118 273 -155 360 -32 80
-89 194 -76 155z"/>
<path d="M13740 1476 c0 -2 7 -7 16 -10 8 -3 12 -2 9 4 -6 10 -25 14 -25 6z"/>
<path d="M14860 1465 c0 -8 4 -15 10 -15 5 0 7 7 4 15 -4 8 -8 15 -10 15 -2 0
-4 -7 -4 -15z"/>
<path d="M6791 1429 c-7 -22 -11 -43 -8 -45 2 -2 9 14 16 37 7 22 11 43 8 45
-2 2 -9 -14 -16 -37z"/>
<path d="M10709 1455 c5 -11 17 -29 26 -40 l16 -20 -10 20 c-5 11 -17 29 -26
40 l-16 20 10 -20z"/>
<path d="M11189 1452 c5 -10 18 -25 27 -33 11 -9 9 -2 -6 19 -26 35 -36 42
-21 14z"/>
<path d="M14635 1460 c3 -5 8 -10 11 -10 2 0 4 5 4 10 0 6 -5 10 -11 10 -5 0
-7 -4 -4 -10z"/>
<path d="M2275 1424 c-30 -27 -32 -31 -9 -16 28 19 62 53 53 52 -2 -1 -22 -17
-44 -36z"/>
<path d="M4799 1403 c-23 -32 -78 -102 -122 -156 -43 -54 -76 -101 -73 -104 7
-8 -7 -25 123 147 113 150 127 170 120 170 -3 0 -24 -26 -48 -57z"/>
<path d="M13689 1447 c15 -19 71 -61 71 -54 0 2 -19 19 -42 37 -24 19 -37 26
-29 17z"/>
<path d="M1120 1429 c-22 -18 -22 -19 -3 -10 12 6 25 16 28 21 9 15 3 12 -25
-11z"/>
<path d="M14665 1440 c3 -5 8 -10 11 -10 2 0 4 5 4 10 0 6 -5 10 -11 10 -5 0
-7 -4 -4 -10z"/>
<path d="M14885 1440 c-3 -6 1 -7 9 -4 18 7 21 14 7 14 -6 0 -13 -4 -16 -10z"/>
<path d="M5202 1283 c-368 -552 -840 -1260 -846 -1270 -4 -7 -3 -13 3 -13 9 0
81 107 528 783 268 404 424 647 418 647 -3 0 -49 -66 -103 -147z"/>
<path d="M6237 1343 c-14 -32 -68 -161 -121 -288 -53 -126 -108 -255 -121
-285 -13 -30 -42 -97 -65 -148 -22 -51 -49 -114 -59 -140 -11 -26 -42 -101
-71 -167 -93 -216 -130 -308 -125 -313 3 -3 7 -3 9 -1 4 4 84 191 161 374 20
50 56 135 80 190 23 55 80 190 125 300 119 289 158 381 191 459 17 37 28 70
26 72 -2 3 -16 -22 -30 -53z"/>
<path d="M10266 1387 c3 -10 9 -15 12 -12 3 3 0 11 -7 18 -10 9 -11 8 -5 -6z"/>
<path d="M2138 1322 c-109 -84 -136 -111 -43 -44 72 52 144 111 135 111 -3 0
-44 -31 -92 -67z"/>
<path d="M12260 1365 c13 -14 26 -25 28 -25 3 0 -5 11 -18 25 -13 14 -26 25
-28 25 -3 0 5 -11 18 -25z"/>
<path d="M13770 1387 c0 -2 51 -39 113 -82 61 -43 135 -94 162 -114 28 -19 43
-27 35 -19 -8 9 -76 58 -150 110 -147 103 -160 111 -160 105z"/>
<path d="M1009 1353 c-13 -16 -12 -17 4 -4 9 7 17 15 17 17 0 8 -8 3 -21 -13z"/>
<path d="M6730 1223 c-24 -82 -59 -200 -78 -263 -19 -63 -38 -128 -42 -145 -4
-16 -37 -127 -73 -245 -133 -441 -168 -562 -163 -568 3 -3 8 -3 10 -1 3 4 79
259 131 444 13 44 46 159 74 255 124 422 192 662 188 666 -2 2 -23 -62 -47
-143z"/>
<path d="M10293 1335 c9 -16 23 -39 32 -50 9 -11 7 -2 -6 20 -27 49 -47 72
-26 30z"/>
<path d="M10790 1330 c12 -16 24 -30 26 -30 3 0 -4 14 -16 30 -12 17 -24 30
-26 30 -3 0 4 -13 16 -30z"/>
<path d="M11285 1330 c10 -11 20 -20 23 -20 3 0 -3 9 -13 20 -10 11 -20 20
-23 20 -3 0 3 -9 13 -20z"/>
<path d="M5750 1319 c-7 -11 -10 -23 -7 -25 2 -2 9 7 15 21 14 30 7 33 -8 4z"/>
<path d="M15630 1327 c0 -4 128 -89 190 -127 14 -8 50 -30 80 -48 30 -18 66
-40 80 -50 13 -9 21 -12 17 -5 -4 7 -41 33 -82 58 -43 27 -72 52 -68 58 3 6 1
7 -6 3 -7 -5 -48 14 -99 47 -105 65 -112 69 -112 64z"/>
<path d="M11830 1296 c0 -2 8 -10 18 -17 15 -13 16 -12 3 4 -13 16 -21 21 -21
13z"/>
<path d="M10830 1270 c6 -11 13 -20 16 -20 2 0 0 9 -6 20 -6 11 -13 20 -16 20
-2 0 0 -9 6 -20z"/>
<path d="M11339 1262 c11 -16 28 -35 38 -43 9 -8 2 5 -17 29 -38 48 -52 57
-21 14z"/>
<path d="M879 1263 c-13 -16 -12 -17 4 -4 9 7 17 15 17 17 0 8 -8 3 -21 -13z"/>
<path d="M12370 1255 c13 -14 26 -25 28 -25 3 0 -5 11 -18 25 -13 14 -26 25
-28 25 -3 0 5 -11 18 -25z"/>
<path d="M10870 1210 c12 -16 24 -30 26 -30 3 0 -4 14 -16 30 -12 17 -24 30
-26 30 -3 0 4 -13 16 -30z"/>
<path d="M11915 1200 c21 -22 41 -40 44 -40 3 0 -13 18 -34 40 -21 22 -41 40
-44 40 -3 0 13 -18 34 -40z"/>
<path d="M1970 1194 c-55 -43 -76 -65 -35 -36 40 28 91 71 85 72 -3 0 -25 -16
-50 -36z"/>
<path d="M5666 1160 c-20 -38 -35 -70 -32 -70 7 0 78 131 73 136 -2 3 -21 -27
-41 -66z"/>
<path d="M15480 1217 c0 -7 21 -24 47 -38 65 -33 67 -34 57 -18 -6 12 -5 12 9
0 10 -8 20 -11 23 -9 3 3 -9 16 -25 28 -17 12 -31 17 -31 12 0 -6 -9 -8 -20
-5 -28 7 -35 22 -8 16 16 -4 20 -2 13 4 -18 18 -65 25 -65 10z"/>
<path d="M10385 1175 c15 -27 32 -54 38 -60 6 -5 -2 13 -18 40 -15 28 -32 55
-38 60 -6 6 2 -12 18 -40z"/>
<path d="M12420 1214 c0 -3 6 -11 13 -17 7 -7 62 -59 122 -117 l110 -105 -120
123 c-120 122 -125 127 -125 116z"/>
<path d="M15202 1214 c8 -12 45 -37 153 -104 39 -24 99 -62 135 -85 36 -23
138 -89 228 -146 217 -138 292 -184 262 -159 -14 12 -59 43 -100 69 -230 147
-406 260 -449 286 -102 62 -187 116 -211 133 -13 9 -21 12 -18 6z"/>
<path d="M12965 1190 c10 -11 20 -20 23 -20 3 0 -3 9 -13 20 -10 11 -20 20
-23 20 -3 0 3 -9 13 -20z"/>
<path d="M759 1183 c-13 -16 -12 -17 4 -4 9 7 17 15 17 17 0 8 -8 3 -21 -13z"/>
<path d="M11402 1183 c8 -10 45 -55 82 -100 37 -46 70 -83 73 -83 7 0 -2 11
-91 118 -37 45 -71 82 -74 82 -3 0 2 -8 10 -17z"/>
<path d="M2559 1173 c-13 -16 -12 -17 4 -4 16 13 21 21 13 21 -2 0 -10 -8 -17
-17z"/>
<path d="M14100 1157 c0 -3 26 -23 58 -46 108 -79 266 -191 269 -191 11 0 -6
14 -69 58 -40 28 -110 78 -154 110 -93 68 -104 75 -104 69z"/>
<path d="M14300 1151 c0 -9 33 -36 54 -44 14 -5 17 -3 12 8 -4 11 2 15 22 16
24 2 24 2 4 6 -12 2 -20 8 -17 13 3 5 -13 9 -35 8 -22 0 -40 -3 -40 -7z"/>
<path d="M12000 1108 c24 -27 45 -48 47 -48 8 0 0 9 -44 50 l-48 45 45 -47z"/>
<path d="M669 1123 c-13 -16 -12 -17 4 -4 9 7 17 15 17 17 0 8 -8 3 -21 -13z"/>
<path d="M1617 926 c-153 -117 -285 -220 -295 -230 -9 -10 44 28 118 84 74 56
195 148 269 204 129 97 202 156 191 155 -3 0 -130 -96 -283 -213z"/>
<path d="M13030 1136 c0 -2 8 -10 18 -17 15 -13 16 -12 3 4 -13 16 -21 21 -21
13z"/>
<path d="M2469 1103 c-13 -16 -12 -17 4 -4 9 7 17 15 17 17 0 8 -8 3 -21 -13z"/>
<path d="M10950 1090 c12 -16 24 -30 26 -30 3 0 -4 14 -16 30 -12 17 -24 30
-26 30 -3 0 4 -13 16 -30z"/>
<path d="M4536 1063 c-14 -21 -41 -56 -59 -79 -17 -23 -66 -86 -108 -140 -42
-54 -125 -160 -185 -236 -92 -115 -293 -373 -436 -559 -21 -27 -33 -49 -28
-49 10 0 65 68 215 265 54 72 121 159 150 195 259 327 497 640 486 640 -4 0
-20 -17 -35 -37z"/>
<path d="M10430 1091 c0 -6 4 -13 10 -16 6 -3 7 1 4 9 -7 18 -14 21 -14 7z"/>
<path d="M5550 943 c-40 -76 -92 -172 -115 -213 -23 -41 -60 -109 -82 -150
-22 -41 -52 -95 -65 -120 -14 -25 -64 -119 -113 -210 -48 -91 -99 -185 -112
-209 -14 -24 -20 -42 -13 -39 11 3 54 80 207 368 31 58 128 239 215 404 88
164 157 300 155 302 -2 2 -37 -58 -77 -133z"/>
<path d="M14850 1067 c0 -2 21 -19 48 -37 26 -19 39 -25 30 -14 -16 18 -78 59
-78 51z"/>
<path d="M10463 1035 c9 -16 23 -39 32 -50 9 -11 7 -2 -6 20 -27 49 -47 72
-26 30z"/>
<path d="M12169 920 c66 -74 155 -171 196 -215 42 -44 23 -19 -43 55 -66 74
-155 171 -197 215 -42 44 -23 19 44 -55z"/>
<path d="M11010 996 c0 -2 8 -10 18 -17 15 -13 16 -12 3 4 -13 16 -21 21 -21
13z"/>
<path d="M14950 997 c0 -4 20 -18 103 -71 15 -10 27 -16 27 -13 0 4 -20 18
-102 71 -16 10 -28 16 -28 13z"/>
<path d="M11591 948 c87 -112 191 -238 196 -238 3 0 -10 19 -29 43 -19 23 -70
86 -113 140 -43 53 -80 97 -82 97 -3 0 10 -19 28 -42z"/>
<path d="M12671 975 c2 -6 57 -62 122 -125 65 -62 115 -107 111 -99 -9 17
-238 238 -233 224z"/>
<path d="M419 953 c-13 -16 -12 -17 4 -4 9 7 17 15 17 17 0 8 -8 3 -21 -13z"/>
<path d="M13270 925 c13 -14 26 -25 28 -25 3 0 -5 11 -18 25 -13 14 -26 25
-28 25 -3 0 5 -11 18 -25z"/>
<path d="M9600 930 c0 -5 5 -10 11 -10 5 0 7 5 4 10 -3 6 -8 10 -11 10 -2 0
-4 -4 -4 -10z"/>
<path d="M10520 931 c0 -6 4 -13 10 -16 6 -3 7 1 4 9 -7 18 -14 21 -14 7z"/>
<path d="M14440 916 c0 -2 14 -14 30 -26 17 -12 30 -19 30 -16 0 2 -13 14 -30
26 -16 12 -30 19 -30 16z"/>
<path d="M15090 908 c0 -3 21 -20 47 -39 69 -49 163 -109 163 -104 0 3 -37 30
-82 60 -46 31 -93 63 -105 71 -13 9 -23 14 -23 12z"/>
<path d="M309 879 l-24 -20 28 17 c15 9 27 18 27 20 0 8 -8 4 -31 -17z"/>
<path d="M10561 860 c12 -22 24 -38 26 -36 4 4 -37 76 -44 76 -2 0 6 -18 18
-40z"/>
<path d="M11097 869 c10 -17 24 -36 32 -42 8 -7 2 7 -14 31 -32 49 -45 57 -18
11z"/>
<path d="M13340 865 c13 -14 26 -25 28 -25 3 0 -5 11 -18 25 -13 14 -26 25
-28 25 -3 0 5 -11 18 -25z"/>
<path d="M2159 853 c-13 -16 -12 -17 4 -4 16 13 21 21 13 21 -2 0 -10 -8 -17
-17z"/>
<path d="M14510 867 c0 -3 24 -22 52 -44 67 -49 82 -58 75 -46 -7 12 -127 96
-127 90z"/>
<path d="M185 794 l-30 -26 33 22 c17 12 32 23 32 26 0 7 -4 5 -35 -22z"/>
<path d="M2099 803 c-13 -16 -12 -17 4 -4 9 7 17 15 17 17 0 8 -8 3 -21 -13z"/>
<path d="M13445 775 c28 -25 64 -55 80 -67 38 -25 -31 38 -90 83 -33 25 -31
22 10 -16z"/>
<path d="M15915 791 c-6 -11 13 -26 22 -17 4 3 0 6 -8 6 -11 0 -11 2 1 10 9 6
10 10 3 10 -6 0 -14 -4 -18 -9z"/>
<path d="M10610 770 c6 -11 13 -20 16 -20 2 0 0 9 -6 20 -6 11 -13 20 -16 20
-2 0 0 -9 6 -20z"/>
<path d="M15965 760 c10 -11 23 -20 28 -20 6 0 1 9 -11 20 -12 11 -24 20 -28
20 -4 0 1 -9 11 -20z"/>
<path d="M11170 756 c0 -2 8 -10 18 -17 15 -13 16 -12 3 4 -13 16 -21 21 -21
13z"/>
<path d="M15310 757 c0 -4 82 -64 126 -92 56 -35 179 -118 184 -125 3 -3 37
-27 75 -53 39 -26 79 -53 90 -60 11 -8 33 -21 48 -31 15 -9 25 -22 21 -28 -5
-8 -11 -6 -18 4 -10 14 -56 35 -56 26 0 -3 14 -14 30 -26 23 -18 34 -20 49
-12 11 5 21 6 23 2 3 -8 104 -72 114 -72 16 0 -19 27 -139 106 -214 142 -271
180 -400 267 -138 94 -147 100 -147 94z"/>
<path d="M79 723 c-13 -16 -12 -17 4 -4 9 7 17 15 17 17 0 8 -8 3 -21 -13z"/>
<path d="M10640 720 c6 -11 13 -20 16 -20 2 0 0 9 -6 20 -6 11 -13 20 -16 20
-2 0 0 -9 6 -20z"/>
<path d="M14690 737 c0 -2 15 -14 33 -27 20 -15 27 -17 18 -6 -13 16 -51 41
-51 33z"/>
<path d="M13045 614 c66 -66 201 -197 300 -290 183 -172 270 -257 283 -278 10
-15 63 -49 68 -43 3 2 -10 17 -28 32 -18 15 -105 96 -192 179 -537 509 -570
539 -431 400z"/>
<path d="M11210 701 c5 -11 15 -23 21 -27 6 -3 3 5 -6 20 -20 30 -30 35 -15 7z"/>
<path d="M11820 660 c17 -22 37 -43 43 -47 6 -4 -6 14 -27 40 -21 26 -40 47
-43 47 -3 0 10 -18 27 -40z"/>
<path d="M1248 644 c-55 -46 -71 -63 -33 -36 45 33 91 72 83 72 -3 0 -26 -16
-50 -36z"/>
<path d="M14790 667 c0 -2 15 -14 33 -27 20 -15 27 -17 18 -6 -13 16 -51 41
-51 33z"/>
<path d="M10555 650 c28 -12 37 -12 30 0 -3 6 -16 10 -28 9 -21 0 -21 -1 -2
-9z"/>
<path d="M13590 656 c0 -3 71 -67 158 -143 176 -155 192 -168 192 -160 0 3
-57 54 -127 115 -71 60 -149 128 -175 151 -27 24 -48 40 -48 37z"/>
<path d="M10680 647 c0 -10 51 -87 57 -87 5 0 -11 27 -44 75 -7 11 -13 16 -13
12z"/>
<path d="M11250 643 c0 -6 8 -17 18 -24 16 -13 16 -13 2 6 -8 11 -16 22 -17
24 -2 2 -3 0 -3 -6z"/>
<path d="M12460 597 c0 -2 15 -16 33 -33 l32 -29 -29 33 c-28 30 -36 37 -36
29z"/>
<path d="M1140 562 c-19 -16 -120 -93 -225 -172 -104 -80 -242 -184 -305 -232
-124 -94 -208 -164 -128 -106 25 18 115 86 200 150 84 64 225 171 313 238 88
67 167 128 175 136 24 24 7 16 -30 -14z"/>
<path d="M11899 562 c11 -16 28 -35 38 -43 9 -8 2 5 -17 29 -38 48 -52 57 -21
14z"/>
<path d="M14920 576 c0 -2 14 -14 30 -26 17 -12 30 -19 30 -16 0 2 -13 14 -30
26 -16 12 -30 19 -30 16z"/>
<path d="M11310 556 c0 -10 349 -528 367 -546 14 -13 15 -13 7 0 -11 21 -311
466 -346 514 -15 21 -28 36 -28 32z"/>
<path d="M14280 541 c0 -5 7 -11 15 -15 8 -3 15 -1 15 3 0 5 -7 11 -15 15 -8
3 -15 1 -15 -3z"/>
<path d="M12548 505 c6 -11 34 -42 63 -70 l53 -50 -54 60 c-74 82 -74 83 -62
60z"/>
<path d="M10760 508 c0 -6 50 -97 178 -323 21 -38 54 -96 72 -128 18 -32 34
-56 36 -54 5 5 -40 89 -158 297 -73 131 -128 218 -128 208z"/>
<path d="M15356 502 c-2 -4 -1 -14 5 -22 7 -12 9 -11 10 5 0 16 2 17 7 4 6
-14 9 -14 26 2 19 19 19 19 -12 19 -17 0 -33 -4 -36 -8z"/>
<path d="M2874 478 l-19 -23 23 19 c12 11 22 21 22 23 0 8 -8 2 -26 -19z"/>
<path d="M11957 490 c28 -41 103 -130 103 -123 0 9 -71 98 -98 123 -14 13 -15
13 -5 0z"/>
<path d="M15033 492 c4 -5 64 -49 133 -98 141 -99 144 -101 375 -265 90 -63
171 -119 179 -123 33 -17 -44 44 -156 122 -66 46 -164 115 -219 154 -181 128
-318 221 -312 210z"/>
<path d="M15453 493 c9 -2 23 -2 30 0 6 3 -1 5 -18 5 -16 0 -22 -2 -12 -5z"/>
<path d="M15528 483 c7 -3 16 -2 19 1 4 3 -2 6 -13 5 -11 0 -14 -3 -6 -6z"/>
<path d="M15558 463 c7 -3 16 -2 19 1 4 3 -2 6 -13 5 -11 0 -14 -3 -6 -6z"/>
<path d="M15370 452 c0 -5 6 -16 13 -26 12 -16 14 -16 14 -2 0 9 -5 16 -11 16
-6 0 -4 5 4 10 13 8 12 10 -2 10 -10 0 -18 -4 -18 -8z"/>
<path d="M2187 423 c-14 -16 -125 -116 -245 -223 -121 -107 -218 -197 -216
-199 4 -4 32 20 255 220 167 151 249 229 238 229 -3 0 -17 -12 -32 -27z"/>
<path d="M15456 434 c-3 -8 -10 -12 -16 -9 -13 8 -13 -5 0 -25 8 -13 10 -13
10 1 0 9 7 19 15 23 8 3 15 10 15 16 0 16 -17 12 -24 -6z"/>
<path d="M15524 430 c-32 -13 -36 -24 -20 -60 12 -29 14 -30 19 -11 3 11 1 24
-4 27 -5 3 -9 10 -9 16 0 7 4 7 13 -1 11 -8 16 -5 25 14 12 27 9 29 -24 15z"/>
<path d="M15580 403 c0 -13 -3 -22 -7 -20 -28 9 7 -67 37 -83 11 -6 24 -9 28
-6 5 3 21 -2 36 -10 37 -19 78 -26 70 -12 -13 21 20 27 51 8 29 -18 73 -20
108 -5 11 4 17 3 17 -5 0 -14 16 -30 50 -53 25 -16 26 -16 28 9 2 22 -1 24
-21 19 -19 -5 -20 -4 -4 5 9 6 17 16 17 23 0 8 -3 8 -8 2 -9 -13 -55 -18 -47
-5 3 6 1 10 -5 10 -7 0 -9 7 -6 16 5 14 4 15 -8 5 -9 -7 -24 -10 -37 -6 -14 5
-19 4 -15 -4 4 -6 3 -11 -3 -11 -5 0 -12 6 -14 13 -4 9 -6 8 -6 -2 -1 -9 -10
-4 -25 13 -13 16 -35 29 -49 29 -14 1 -25 6 -24 10 1 5 -10 18 -25 30 -22 16
-30 18 -42 8 -10 -8 -16 -9 -21 -1 -3 6 -11 8 -16 5 -5 -4 -9 2 -9 11 0 16 1
16 20 -1 17 -16 20 -16 20 -2 0 15 -36 34 -47 23 -3 -3 -6 -28 -6 -56 -1 -49
-1 -50 -14 -25 -8 14 -12 34 -9 43 3 9 1 24 -4 32 -8 12 -10 11 -10 -7z m70
-63 c0 -5 -5 -10 -11 -10 -5 0 -7 5 -4 10 3 6 8 10 11 10 2 0 4 -4 4 -10z m70
-20 c0 -5 -2 -10 -4 -10 -3 0 -8 5 -11 10 -3 6 -1 10 4 10 6 0 11 -4 11 -10z"/>
<path d="M1579 393 c-13 -16 -12 -17 4 -4 16 13 21 21 13 21 -2 0 -10 -8 -17
-17z"/>
<path d="M2790 400 c-8 -5 -12 -12 -9 -15 4 -3 12 1 19 10 14 17 11 19 -10 5z"/>
<path d="M12750 281 c52 -57 127 -139 165 -182 39 -42 74 -78 79 -78 4 -1 -46
57 -111 127 -66 70 -124 135 -129 143 -5 7 -29 32 -54 54 -24 22 -2 -7 50 -64z"/>
<path d="M15777 369 c7 -7 15 -10 18 -7 3 3 -2 9 -12 12 -14 6 -15 5 -6 -5z"/>
<path d="M12097 313 c24 -34 67 -87 107 -133 7 -8 43 -52 80 -97 37 -46 70
-83 73 -83 5 0 8 -4 -155 198 -68 84 -126 152 -128 152 -3 0 7 -17 23 -37z"/>
<path d="M13953 325 c0 -8 4 -12 8 -9 4 2 25 -10 46 -28 l38 -32 -40 42 c-42
45 -52 50 -52 27z"/>
<path d="M12013 313 c9 -2 23 -2 30 0 6 3 -1 5 -18 5 -16 0 -22 -2 -12 -5z"/>
<path d="M12770 300 c6 -11 13 -20 16 -20 2 0 0 9 -6 20 -6 11 -13 20 -16 20
-2 0 0 -9 6 -20z"/>
<path d="M9795 270 c4 -6 11 -8 16 -5 14 9 11 15 -7 15 -8 0 -12 -5 -9 -10z"/>
<path d="M12196 255 c-3 -8 -2 -14 2 -14 19 3 33 -2 27 -10 -3 -5 -1 -12 4
-15 15 -10 7 20 -11 37 -14 14 -17 14 -22 2z"/>
<path d="M14080 225 c19 -19 36 -35 39 -35 3 0 -10 16 -29 35 -19 19 -36 35
-39 35 -3 0 10 -16 29 -35z"/>
<path d="M2604 218 c-29 -31 -29 -31 -2 -12 15 10 29 25 32 32 8 18 2 15 -30
-20z"/>
<path d="M15765 240 c-3 -6 1 -7 9 -4 18 7 21 14 7 14 -6 0 -13 -4 -16 -10z"/>
<path d="M15800 231 c0 -5 9 -11 20 -14 14 -4 18 -11 14 -24 -4 -12 -3 -14 3
-5 8 10 22 8 72 -10 51 -18 64 -20 71 -9 7 12 9 12 12 0 4 -12 5 -12 4 0 -1 8
-12 15 -28 15 -15 1 -35 9 -45 17 -10 9 -39 21 -65 28 -56 13 -58 13 -58 2z"/>
<path d="M7327 224 c-14 -15 -6 -34 14 -34 14 0 19 5 17 17 -3 18 -20 27 -31
17z"/>
<path d="M15926 217 c3 -10 9 -15 12 -12 3 3 0 11 -7 18 -10 9 -11 8 -5 -6z"/>
<path d="M15950 211 c0 -6 4 -13 10 -16 6 -3 7 1 4 9 -7 18 -14 21 -14 7z"/>
<path d="M15777 186 c-4 -10 0 -12 14 -9 10 3 16 9 13 14 -8 13 -21 11 -27 -5z"/>
<path d="M13589 136 c30 -30 58 -53 63 -50 4 3 8 1 8 -5 0 -13 59 -71 72 -71
6 0 8 6 5 14 -3 8 1 13 10 12 9 0 18 5 21 13 3 10 0 12 -12 8 -9 -4 -16 -2
-16 3 0 6 -9 10 -21 10 -12 0 -23 8 -26 20 -5 19 -54 50 -80 50 -7 0 -13 3
-13 8 0 4 -15 15 -33 25 -27 16 -24 10 22 -37z"/>
<path d="M14160 154 c19 -21 39 -40 43 -43 5 -2 31 -23 58 -47 45 -40 89 -70
89 -61 0 2 -51 46 -112 97 -62 51 -97 76 -78 54z"/>
<path d="M1269 143 c-13 -16 -12 -17 4 -4 16 13 21 21 13 21 -2 0 -10 -8 -17
-17z"/>
<path d="M11660 132 c0 -5 7 -9 15 -9 8 0 12 4 9 9 -7 10 -24 10 -24 0z"/>
<path d="M2445 58 l-60 -63 63 60 c58 55 67 65 59 65 -1 0 -29 -28 -62 -62z"/>
<path d="M15698 113 c7 -3 16 -2 19 1 4 3 -2 6 -13 5 -11 0 -14 -3 -6 -6z"/>
<path d="M12960 90 c0 -5 5 -10 10 -10 6 0 10 5 10 10 0 6 -4 10 -10 10 -5 0
-10 -4 -10 -10z"/>
<path d="M1179 73 c-13 -16 -12 -17 4 -4 9 7 17 15 17 17 0 8 -8 3 -21 -13z"/>
<path d="M15677 73 c-8 -8 30 -28 67 -35 16 -3 40 1 55 8 25 13 23 14 -31 14
-32 0 -58 4 -58 10 0 11 -23 14 -33 3z"/>
<path d="M15848 53 c7 -3 16 -2 19 1 4 3 -2 6 -13 5 -11 0 -14 -3 -6 -6z"/>
<path d="M11065 30 c3 -5 13 -10 21 -10 8 0 12 4 9 10 -3 6 -13 10 -21 10 -8
0 -12 -4 -9 -10z"/>
</g>
</svg>
